<svg width="87" height="96" fill="none" xmlns="http://www.w3.org/2000/svg"><path d="M39.749 5.264a4.818 4.818 0 00-1.027-.743 2.607 2.607 0 00-1.114-.24c-.48 0-.83.11-1.07.306-.24.196-.371.524-.371.96 0 .307.13.59.393.787.262.219.568.415.96.612.394.196.809.393 1.246.611.437.219.852.46 1.245.765.393.306.699.655.96 1.092.263.437.394.961.394 1.573 0 .939-.262 1.747-.764 2.424-.503.677-1.29 1.114-2.294 1.354v2.053h-1.9v-1.965a6.786 6.786 0 01-1.813-.48c-.633-.263-1.18-.59-1.638-1.006l1.267-1.944a7.77 7.77 0 001.42.852c.458.197.917.284 1.376.284.546 0 .96-.109 1.2-.327.263-.219.394-.568.394-1.027 0-.35-.131-.633-.393-.874a4.933 4.933 0 00-.961-.677A32.334 32.334 0 0036.014 9a7.458 7.458 0 01-1.245-.786 4.078 4.078 0 01-.961-1.07c-.263-.416-.394-.896-.394-1.486 0-.96.263-1.77.787-2.403s1.267-1.048 2.184-1.223V0h1.9v1.988c.634.087 1.18.284 1.66.568.48.283.896.633 1.289 1.048l-1.485 1.66z" fill="#333B41"/><path fill-rule="evenodd" clip-rule="evenodd" d="M86.775 76l-3.594-2.21-8.017 14.374 3.87 1.935 7.74-14.098z" fill="#333B41"/><path clip-rule="evenodd" d="M81.246 73.236c-9.4-10.782-17.692-8.017-28.75-.83-9.675 6.358-16.863 1.935-24.05 4.976-1.66.83-4.147 2.764-1.936 4.7 1.106.829 5.53 1.658 6.912 1.382 7.463-1.659 9.675 1.659 21.009-.553-3.317 2.488-14.098.83-20.733 1.659-5.253 1.105-13.822-3.041-6.911-7.74-3.041-1.383-5.805-2.212-9.123-2.489-3.317-2.488-8.57-5.529-11.334-6.634-2.211-1.382-7.74-.83-4.146 2.764 3.593 3.317 13.269 10.781 15.204 11.887 7.74 4.7 14.928 8.017 22.392 12.163 0 0 2.488 1.383 7.463-.552 3.594-1.66 19.628-10.505 23.498-9.123 2.212.83 3.317 1.382 3.317 1.382l7.188-12.992z" stroke="#333B41" stroke-width="1.5"/><path fill-rule="evenodd" clip-rule="evenodd" d="M34.528 72.406c.553-1.106 1.106-1.935 1.935-2.212.83-.276 1.106.277 1.659.83.552.83.829 1.106 1.658 1.659.277.276.83.276 1.106.276l-.553-.276c-.83-.553-1.382-1.106-1.106-2.212 0-.276-.276-.83.277-.83.553.277 1.382.83 2.211.83 0 0 .83.276.553 0 0-.276-.553-.553-.83-.83-1.658-1.382-1.658-1.658-1.658-3.593.277-2.765-.83-4.976-2.764-6.911-4.423-4.423-2.488-10.505.83-16.31 3.04-5.252 5.804-6.082 2.764-12.44-1.106-2.764-3.041-5.529-3.318-7.187 0-.553 0-.277 0 0-.276 1.658.83 4.146 1.935 6.634 2.488 5.529 1.935 6.082-1.658 11.058-3.87 4.976-6.635 10.228-4.976 15.757 1.105 3.87 6.634 7.74 3.87 10.228-1.382 1.106-3.317 3.87-3.594 5.529-.276.83-.276.83-.553 1.382-.276.277 0 .277.277.277 1.382-.277 1.382-.83 1.935-1.659z" fill="#333B41"/><mask id="path-5-inside-1_17137_3418" fill="#fff"><path d="M40.886 62.178c6.91 0 12.44-8.846 12.163-14.928-7.74 2.212-12.163 4.423-12.993 7.74-.553 1.66-.276 2.765 1.106 3.041.83-.276 3.04-3.87 7.187-5.528-3.593 3.317-4.146 5.252-7.187 8.016h-.276c-1.106-.552-2.212-1.382-2.489-2.488-.552-1.105-.552-2.488-.276-3.87 1.106-3.04 4.147-5.529 9.4-7.464 2.764-.829 5.252-1.935 8.016-1.935-1.106 6.082-1.935 11.058-5.529 14.928-4.423 4.423-8.846 2.488-9.123 2.488z"/></mask><path d="M40.886 62.178c6.91 0 12.44-8.846 12.163-14.928-7.74 2.212-12.163 4.423-12.993 7.74-.553 1.66-.276 2.765 1.106 3.041.83-.276 3.04-3.87 7.187-5.528-3.593 3.317-4.146 5.252-7.187 8.016h-.276c-1.106-.552-2.212-1.382-2.489-2.488-.552-1.105-.552-2.488-.276-3.87 1.106-3.04 4.147-5.529 9.4-7.464 2.764-.829 5.252-1.935 8.016-1.935-1.106 6.082-1.935 11.058-5.529 14.928-4.423 4.423-8.846 2.488-9.123 2.488z" stroke="#333B41" stroke-width="3" mask="url(#path-5-inside-1_17137_3418)"/><mask id="path-6-inside-2_17137_3418" fill="#fff"><path d="M33.698 41.168c-6.082.276-10.781-7.464-10.505-12.716 6.635 1.935 10.505 3.87 11.335 6.634.552 1.383 0 2.488-1.106 2.765-.83-.277-2.765-3.318-6.358-4.7 3.317 2.765 3.87 4.423 6.358 6.911l.276-.276c1.106-.277 1.935-.83 2.212-1.935.553-1.106.553-2.212 0-3.318-.83-2.764-3.318-4.976-8.017-6.358-2.488-.829-4.423-1.658-6.911-1.935 1.106 5.253 1.659 9.676 4.976 12.993 3.594 3.87 7.464 2.212 7.74 1.935z"/></mask><path d="M33.698 41.168c-6.082.276-10.781-7.464-10.505-12.716 6.635 1.935 10.505 3.87 11.335 6.634.552 1.383 0 2.488-1.106 2.765-.83-.277-2.765-3.318-6.358-4.7 3.317 2.765 3.87 4.423 6.358 6.911l.276-.276c1.106-.277 1.935-.83 2.212-1.935.553-1.106.553-2.212 0-3.318-.83-2.764-3.318-4.976-8.017-6.358-2.488-.829-4.423-1.658-6.911-1.935 1.106 5.253 1.659 9.676 4.976 12.993 3.594 3.87 7.464 2.212 7.74 1.935z" stroke="#333B41" stroke-width="3" mask="url(#path-6-inside-2_17137_3418)"/><mask id="path-7-inside-3_17137_3418" fill="#fff"><path d="M43.926 31.493c4.976 0 9.122-6.358 9.122-11.057-6.081 1.658-9.122 3.317-9.952 5.805-.276 1.106 0 1.935.83 2.211.83 0 2.488-2.764 5.529-4.146-2.765 2.488-3.318 3.87-5.53 6.081-1.105-.276-1.658-1.105-1.934-1.935-.553-.829-.553-1.935-.277-2.764.83-2.488 3.041-4.147 6.911-5.529 2.212-.83 4.147-1.382 6.082-1.659-.83 4.424-1.382 8.294-4.147 11.335-3.317 3.317-6.634 1.658-6.634 1.658z"/></mask><path d="M43.926 31.493c4.976 0 9.122-6.358 9.122-11.057-6.081 1.658-9.122 3.317-9.952 5.805-.276 1.106 0 1.935.83 2.211.83 0 2.488-2.764 5.529-4.146-2.765 2.488-3.318 3.87-5.53 6.081-1.105-.276-1.658-1.105-1.934-1.935-.553-.829-.553-1.935-.277-2.764.83-2.488 3.041-4.147 6.911-5.529 2.212-.83 4.147-1.382 6.082-1.659-.83 4.424-1.382 8.294-4.147 11.335-3.317 3.317-6.634 1.658-6.634 1.658z" stroke="#333B41" stroke-width="3" mask="url(#path-7-inside-3_17137_3418)"/></svg>