<svg width="89" height="29" fill="none" xmlns="http://www.w3.org/2000/svg"><path d="M.324 16.654c.408.72 5.252-1.52 13.098-4.547a103.411 103.411 0 0113.954-4.301A62.27 62.27 0 0144.794 6.31a47.516 47.516 0 0116.74 4.205 78.423 78.423 0 0112.634 7.103c2.854 1.985 5.157 3.798 6.927 5.203-.897.005-1.775.018-2.614.046-2.17.07-4.126.211-5.772.411-3.292.4-5.341 1.036-5.367 1.812-.026.777 1.977 1.546 5.235 2.164 1.629.308 3.572.579 5.732.793 1.08.107 2.215.2 3.392.276l1.796.102.918.042c.192.004.203.017.632.015.301-.006.6-.049.891-.126a3.28 3.28 0 002.221-1.995c.12-.31.197-.636.227-.967.02-.196.025-.394.018-.59l-.016-.309a14.762 14.762 0 00-.113-1.114 19.49 19.49 0 00-.402-2.007c-.32-1.247-.65-2.286-.977-3.332-.658-2.07-1.326-3.914-1.966-5.443-1.28-3.06-2.45-4.858-3.204-4.672-.754.186-.95 2.323-.658 5.626.146 1.652.415 3.595.796 5.732l.13.673a51.527 51.527 0 00-5.376-5.473A61.614 61.614 0 0063.753 5.83 47.066 47.066 0 0045.158.698a57.97 57.97 0 00-19.042 2.08 74.023 74.023 0 00-14.325 5.701C4.078 12.57-.04 16.03.324 16.654z" fill="#468E0D"/></svg>